<svg id="Layer_1" data-name="Layer 1" xmlns="http://www.w3.org/2000/svg" viewBox="0 0 354.48 117.18"><defs><style>.cls-1{fill:#88bf67;}</style></defs><title>logo-final</title><path class="cls-1" d="M321.42,66.23C326,62.42,331.11,59.3,335.28,55c9.71-10,9-20-2.39-27.95-12.67-8.84-27.43-12.39-42.26-15.22a360.51,360.51,0,0,0-72.08-6c-27.62.35-55.23,1.07-82.65,4.68-23.59,3.1-47.07,7-70.16,12.88a13.11,13.11,0,0,1-7.16.48c9.13-3.89,17.62-5.63,26-7.63,28.48-6.82,57.37-11,86.53-13.76A614.75,614.75,0,0,1,236.41.06c30,.37,59.9,2.81,88.73,12.2,8.31,2.71,16.48,5.83,23,12.06,8,7.74,8.47,16.11,1.31,24.57C344.2,55,329.8,64.21,321.42,66.23Z"/><path class="cls-1" d="M295.92,78c-12.78,7.09-26.38,11.87-40.21,15.9-28.14,8.19-56.84,13.61-85.86,17.77-37.62,5.41-75.28,7.34-113.11,3.36-12.52-1.32-25-3.49-36.86-8.15-1.77-.69-3.55-1.37-5.28-2.17C-2.78,96.68-4.81,83.64,9.41,70.93A80.09,80.09,0,0,1,19,63.56c4.35-2.86,9-5.34,13.44-8l1.17,1.37c-2.72,2.23-5.51,4.37-8.14,6.69-14,12.4-12.59,24.68,4.29,32.76,17.5,8.38,36.53,10.77,55.58,11.68,68.95,3.29,136.18-6.51,201.83-27.62C290.07,79.53,293,78.84,295.92,78Z"/><path d="M85.83,40.83a35.56,35.56,0,0,0-10.06,1.52v4.54a35.56,35.56,0,0,1,10.06-1.52q8.57,0,8.56,5.18v3A50.27,50.27,0,0,0,86.1,53q-12.9,0-12.9,9.78t12,9.9a20.26,20.26,0,0,0,9.75-2.24l2.24,2.24H100V51Q100,40.83,85.83,40.83ZM94.39,65.6c-2.27,1.66-5.36,2.48-9.23,2.48q-6.36,0-6.36-5.44,0-5.16,7.3-5.15a46.78,46.78,0,0,1,8.29.61Z"/><path d="M85.83,40.83a35.56,35.56,0,0,0-10.06,1.52v4.54a35.56,35.56,0,0,1,10.06-1.52q8.57,0,8.56,5.18v3A50.27,50.27,0,0,0,86.1,53q-12.9,0-12.9,9.78t12,9.9a20.26,20.26,0,0,0,9.75-2.24l2.24,2.24H100V51Q100,40.83,85.83,40.83ZM94.39,65.6c-2.27,1.66-5.36,2.48-9.23,2.48q-6.36,0-6.36-5.44,0-5.16,7.3-5.15a46.78,46.78,0,0,1,8.29.61Z"/><path d="M133.31,63.55q0,9.08-13.21,9.08a39.58,39.58,0,0,1-11-1.52V66.27a33.82,33.82,0,0,0,11,1.81q7.62,0,7.61-4.53,0-4.24-5-4.25h-5.15q-10,0-10-9.38,0-9.09,13.23-9.09a39.74,39.74,0,0,1,11,1.52V47.2a33.39,33.39,0,0,0-11-1.83q-7.93,0-7.93,4.55c0,2.82,1.57,4.24,4.69,4.24h5.15Q133.32,54.16,133.31,63.55Z"/><path d="M122.71,54.16h-5.15c-3.12,0-4.69-1.42-4.69-4.24q0-4.55,7.93-4.55a33.39,33.39,0,0,1,11,1.83V42.35a39.74,39.74,0,0,0-11-1.52q-13.23,0-13.23,9.09,0,9.39,10,9.38h5.15q5,0,5,4.25,0,4.53-7.61,4.53a33.82,33.82,0,0,1-11-1.81v4.84a39.58,39.58,0,0,0,11,1.52q13.2,0,13.21-9.08Q133.31,54.16,122.71,54.16Z"/><path d="M153,45.37V40.83h-7.4l-1.21-5.15h-3.51V64.06q0,8.58,8,8.57H153V68.08h-2.67c-2.56,0-3.85-1.47-3.85-4.45V45.37Z"/><path d="M153,45.37V40.83h-7.4l-1.21-5.15h-3.51V64.06q0,8.58,8,8.57H153V68.08h-2.67c-2.56,0-3.85-1.47-3.85-4.45V45.37Z"/><path d="M174.19,40.83q-15.15,0-15.14,15.9T174.19,72.6q15.13,0,15.15-15.87T174.19,40.83Zm0,27.25c-6.35,0-9.54-3.81-9.54-11.47q0-11.23,9.54-11.24t9.55,11.24C183.74,64.27,180.55,68.08,174.19,68.08Z"/><path d="M174.19,40.83q-15.15,0-15.14,15.9T174.19,72.6q15.13,0,15.15-15.87T174.19,40.83Zm0,27.25c-6.35,0-9.54-3.81-9.54-11.47q0-11.23,9.54-11.24t9.55,11.24C183.74,64.27,180.55,68.08,174.19,68.08Z"/><path d="M224.31,52.68V72.63h-5.6v-20q0-7.1-7.06-7.09-4.82,0-9.14,4v23.1H196.9V29.33h5.61v15a18.47,18.47,0,0,1,10.81-3.46Q224.3,40.83,224.31,52.68Z"/><path d="M213.32,40.83a18.47,18.47,0,0,0-10.81,3.46v-15H196.9v43.3h5.61V49.53q4.34-4,9.14-4,7.07,0,7.06,7.09v20h5.6V52.68Q224.31,40.83,213.32,40.83Z"/><path d="M247,40.83q-15.14,0-15.13,15.9T247,72.6q15.15,0,15.15-15.87T247,40.83Zm0,27.25c-6.35,0-9.54-3.81-9.54-11.47q0-11.23,9.54-11.24t9.55,11.24C256.57,64.27,253.38,68.08,247,68.08Z"/><path d="M247,40.83q-15.14,0-15.13,15.9T247,72.6q15.15,0,15.15-15.87T247,40.83Zm0,27.25c-6.35,0-9.54-3.81-9.54-11.47q0-11.23,9.54-11.24t9.55,11.24C256.57,64.27,253.38,68.08,247,68.08Z"/><path d="M294,63.55a9.08,9.08,0,0,1-.8,3.92c-1,2.07-2.89,3.53-5.72,4.35a24,24,0,0,1-6.69.81,39.6,39.6,0,0,1-11-1.52V66.27a33.83,33.83,0,0,0,11,1.81q7.61,0,7.6-4.53c0-2.83-1.67-4.25-5-4.25h-5.15q-10,0-10-9.38,0-9.09,13.24-9.09a39.84,39.84,0,0,1,11,1.52V47.2a33.48,33.48,0,0,0-11-1.83q-7.95,0-7.94,4.55c0,2.82,1.57,4.24,4.7,4.24h5.15Q294,54.16,294,63.55Z"/><path d="M307.13,45.37V63.63a5.74,5.74,0,0,0,0,.6q.24,3.85,3.82,3.85h2.67v4.55h-4.12q-6.31,0-7.64-5.34a13.13,13.13,0,0,1-.36-3.23V35.68H305l1.22,5.15h7.39v4.54Z"/><path d="M67.14,60.21q0,12.74-16.77,12.72a56.53,56.53,0,0,1-14.72-1.82V66a43.71,43.71,0,0,0,14.72,2.42q11.16,0,11.17-8.18,0-7-8.24-7H47.13q-7.52,0-10.88-3.6A10,10,0,0,1,33.89,45h0a16.19,16.19,0,0,1-.36-3.54Q33.53,29,50.94,29A51.85,51.85,0,0,1,65,30.84V36a39.93,39.93,0,0,0-14.08-2.43q-11.82,0-11.81,7.87v.26a7.25,7.25,0,0,0,1,3.88c1.23,1.89,3.54,2.83,7,2.83H53.3Q67.15,48.4,67.14,60.21Z"/></svg>