<svg width="15" height="16" viewBox="0 0 15 16" fill="none" xmlns="http://www.w3.org/2000/svg">
<g id="teenyicons:tick-circle-solid" opacity="0.76" clip-path="url(#clip0_13_41)">
<path id="Vector" fill-rule="evenodd" clip-rule="evenodd" d="M0.0537109 8.17973C0.0537109 6.27243 0.811382 4.44325 2.16005 3.09459C3.50871 1.74592 5.33789 0.988251 7.24519 0.988251C9.15249 0.988251 10.9817 1.74592 12.3303 3.09459C13.679 4.44325 14.4367 6.27243 14.4367 8.17973C14.4367 10.087 13.679 11.9162 12.3303 13.2649C10.9817 14.6135 9.15249 15.3712 7.24519 15.3712C5.33789 15.3712 3.50871 14.6135 2.16005 13.2649C0.811382 11.9162 0.0537109 10.087 0.0537109 8.17973ZM6.8348 11.2577L10.9752 6.08174L10.2273 5.4834L6.69672 9.89514L4.196 7.81153L3.58233 8.54793L6.8348 11.2586V11.2577Z" fill="black"/>
</g>
<defs>
<clipPath id="clip0_13_41">
<rect width="14.383" height="14.383" fill="white" transform="translate(0.0537109 0.988251)"/>
</clipPath>
</defs>
</svg>
